<svg height="512" viewBox="0 0 512 512" width="512" xmlns="http://www.w3.org/2000/svg"><g><path d="m496.91 448h-117.82a95.964 95.964 0 0 1 -84.52-50.45 176.234 176.234 0 0 0 111.4-137.73 96.014 96.014 0 0 1 38.2 162.75z" fill="#57a4ff"/><g fill="#004fac"><path d="m500.38 440.79-42.76-20.62a104.339 104.339 0 0 0 25.47-68.17 103.051 103.051 0 0 0 -21.22-62.96 104.865 104.865 0 0 0 -47.11-34.73 185.054 185.054 0 0 0 1.24-21.31c0-101.46-82.54-184-184-184s-184 82.54-184 184a184.592 184.592 0 0 0 50.97 127.1l-86.45 41.69a8 8 0 0 0 3.48 15.21h216a183.208 183.208 0 0 0 59-9.7 103.949 103.949 0 0 0 88.09 48.7h117.82a8 8 0 0 0 3.47-15.21zm-268.38-39.79h-181l65.16-31.42a8.006 8.006 0 0 0 1.94-13.09 168.5 168.5 0 0 1 -54.1-123.49c0-92.64 75.36-168 168-168s168 75.36 168 168-75.36 168-168 168zm147.09 39a87.951 87.951 0 0 1 -72.87-38.65 184.672 184.672 0 0 0 105.94-130.9 88 88 0 0 1 26.59 146.24 8 8 0 0 0 1.95 13.09l21.2 10.22z"/><path d="m328 193h-192a8 8 0 0 0 0 16h192a8 8 0 0 0 0-16z"/><path d="m328 225h-192a8 8 0 0 0 0 16h192a8 8 0 0 0 0-16z"/><path d="m263 257h-128a8 8 0 0 0 0 16h128a8 8 0 0 0 0-16z"/><path d="m295 257h-8a8 8 0 0 0 0 16h8a8 8 0 0 0 0-16z"/></g></g></svg>